<svg xmlns="http://www.w3.org/2000/svg" viewBox="0 0 64 64" enable-background="new 0 0 64 64">
  <circle cx="32" cy="32" r="30" fill="hsl(135,100%,43%)"/>
  <g fill="#1e1e1e">
    <path d="m47.7 44c-1.7-3.6-5.9-6-15.7-6-9.8 0-14 2.4-15.7 6-.9 1.9.4 5 .4 5 1.6 3.9 1.4 5 15.3 5 13.9 0 13.6-1.1 15.3-5 0 0 1.3-3.1.4-5"/>
  </g>
  <path d="m41.2 44c-2.3 0-9.2 0-9.2 0s-6.9 0-9.2 0c-.7 0-.8.3-.8.8 0 .9 0 2.4 0 4 0 8.8 4.5 13.2 10 13.2 5.5 0 10-4.4 10-13.2 0-1.6 0-3.1 0-4 0-.5-.1-.8-.8-.8" 
        fill="#ff717f"/>
  <path fill="#e2596c" d="M33.5 44 32 57.8 30.5 44z"/>
  <g fill="#1e1e1e">
    <path d="m51.7 23.4c.6.3.3 1-.2 1.1-2.7.4-5.5.9-8.3 2.4 4 .7 7.2 2.7 9 4.8.4.5-.1 1.1-.5 1-4.8-1.7-9.7-2.7-15.8-2-.5 0-.9-.2-.8-.7 1.6-7.3 10.9-10 16.6-6.6"/>
    <path d="m12.3 23.4c-.6.3-.3 1 .2 1.1 2.7.4 5.5.9 8.3 2.4-4 .7-7.2 2.7-9 4.8-.4.5.1 1.1.5 1 4.8-1.7 9.7-2.7 15.8-2 .5 0 .9-.2.8-.7-1.6-7.3-10.9-10-16.6-6.6"/>
  </g>
</svg>