<?xml version="1.0" encoding="UTF-8" standalone="no"?>
<!-- Created with Inkscape (http://www.inkscape.org/) -->

<svg
   xmlns:dc="http://purl.org/dc/elements/1.1/"
   xmlns:cc="http://creativecommons.org/ns#"
   xmlns:rdf="http://www.w3.org/1999/02/22-rdf-syntax-ns#"
   xmlns:svg="http://www.w3.org/2000/svg"
   xmlns="http://www.w3.org/2000/svg"
   xmlns:sodipodi="http://sodipodi.sourceforge.net/DTD/sodipodi-0.dtd"
   xmlns:inkscape="http://www.inkscape.org/namespaces/inkscape"
   width="118mm"
   height="40mm"
   viewBox="0 0 418.11022 141.73228"
   id="svg2"
   version="1.1"
   inkscape:version="0.92.3 (2405546, 2018-03-11)"
   sodipodi:docname="feltabout.svg">
  <defs
     id="defs4" />
  <sodipodi:namedview
     id="base"
     pagecolor="#ffffff"
     bordercolor="#666666"
     borderopacity="1.0"
     inkscape:pageopacity="0.0"
     inkscape:pageshadow="2"
     inkscape:zoom="1.4142136"
     inkscape:cx="251.49127"
     inkscape:cy="48.695858"
     inkscape:document-units="px"
     inkscape:current-layer="text3336"
     showgrid="false"
     inkscape:window-width="3840"
     inkscape:window-height="2004"
     inkscape:window-x="-16"
     inkscape:window-y="-16"
     inkscape:window-maximized="1"
     fit-margin-top="0"
     fit-margin-left="0"
     fit-margin-right="0"
     fit-margin-bottom="0" />
  <metadata
     id="metadata7">
    <rdf:RDF>
      <cc:Work
         rdf:about="">
        <dc:format>image/svg+xml</dc:format>
        <dc:type
           rdf:resource="http://purl.org/dc/dcmitype/StillImage" />
        <dc:title />
      </cc:Work>
    </rdf:RDF>
  </metadata>
  <g
     inkscape:label="Layer 1"
     inkscape:groupmode="layer"
     id="layer1"
     transform="translate(-163.69884,-55.129905)">
    <g
       aria-label="feltabout"
       style="font-style:normal;font-variant:normal;font-weight:bold;font-stretch:normal;line-height:0%;font-family:Comfortaa;-inkscape-font-specification:'Comfortaa, Bold';text-align:start;letter-spacing:0px;word-spacing:0px;writing-mode:lr-tb;text-anchor:start;fill:#000000;fill-opacity:1;stroke:none;stroke-width:1px;stroke-linecap:butt;stroke-linejoin:miter;stroke-opacity:1"
       id="text3336">
      <path
         d="m 191.34881,63.503271 q -4.9,0 -7.875,3.2375 -2.975,3.2375 -2.975,8.575 v 2.3625 h 8.925 q 1.8375,0 2.975,1.05 1.1375,1.05 1.1375,2.8 0,1.575 -1.1375,2.625 -1.1375,1.05 -2.975,1.05 h -8.925 v 34.124999 q 0,2.0125 -1.225,3.2375 -1.225,1.225 -3.4125,1.225 -1.75,0 -3.0625,-1.225 -1.225,-1.225 -1.225,-3.2375 V 85.203271 h -3.7625 q -1.8375,0 -2.975,-1.05 -1.1375,-1.05 -1.1375,-2.625 0,-1.75 1.1375,-2.8 1.1375,-1.05 2.975,-1.05 h 3.7625 v -1.4875 q 0,-6.2125 2.45,-10.85 2.5375,-4.725 7,-7.2625 4.55,-2.625 10.325,-2.625 1.925,0 3.15,1.1375 1.3125,1.1375 1.3125,2.8875 0,1.75 -1.3125,2.8875 -1.225,1.1375 -3.15,1.1375 z"
         style="font-style:normal;font-variant:normal;font-weight:bold;font-stretch:normal;font-size:87.5px;line-height:100%;font-family:Comfortaa;-inkscape-font-specification:'Comfortaa, Bold';text-align:start;writing-mode:lr-tb;text-anchor:start;fill:#666666"
         id="path3726" />
      <path
         d="m 244.08123,99.115771 q 0,1.662499 -1.1375,2.799999 -1.1375,1.05 -2.8875,1.05 h -33.25 q 0.9625,6.125 5.5125,9.8875 4.6375,3.7625 11.2875,3.7625 2.625,0 5.425,-0.9625 2.8875,-0.9625 4.725,-2.3625 1.225,-0.9625 2.8875,-0.9625 1.6625,0 2.625,0.875 1.575,1.3125 1.575,2.975 0,1.575 -1.4,2.625 -2.975,2.3625 -7.4375,3.85 -4.375,1.4875 -8.4,1.4875 -7.175,0 -12.8625,-3.0625 -5.6875,-3.15 -8.925,-8.6625 -3.15,-5.5125 -3.15,-12.512499 0,-7 2.975,-12.5125 3.0625,-5.6 8.4,-8.6625 5.425,-3.15 12.25,-3.15 6.7375,0 11.6375,2.975 4.9,2.975 7.525,8.3125 2.625,5.3375 2.625,12.25 z m -21.7875,-16.0125 q -6.3875,0 -10.4125,3.5 -3.9375,3.5 -4.9875,9.3625 h 29.1375 q -0.7875,-5.8625 -4.375,-9.3625 -3.5875,-3.5 -9.3625,-3.5 z"
         style="font-style:normal;font-variant:normal;font-weight:bold;font-stretch:normal;font-size:87.5px;line-height:100%;font-family:Comfortaa;-inkscape-font-specification:'Comfortaa, Bold';text-align:start;writing-mode:lr-tb;text-anchor:start;fill:#666666"
         id="path3728" />
      <path
         d="m 253.71443,59.828271 q 0,-1.925 1.225,-3.15 1.225,-1.225 3.15,-1.225 1.925,0 3.15,1.225 1.225,1.225 1.225,3.15 v 47.774999 q 0,3.2375 1.225,5.3375 1.225,2.1 3.15,2.1 h 2.1875 q 1.75,0 2.8,1.225 1.1375,1.225 1.1375,3.15 0,1.925 -1.6625,3.15 -1.6625,1.225 -4.2875,1.225 h -0.175 q -3.7625,0 -6.825,-2.0125 -2.975,-2.1 -4.6375,-5.775 -1.6625,-3.7625 -1.6625,-8.4 z"
         style="font-style:normal;font-variant:normal;font-weight:bold;font-stretch:normal;font-size:87.5px;line-height:100%;font-family:Comfortaa;-inkscape-font-specification:'Comfortaa, Bold';text-align:start;writing-mode:lr-tb;text-anchor:start;fill:#666666"
         id="path3730" />
      <path
         d="m 302.17029,115.04077 q 1.575,0 2.625,1.225 1.1375,1.225 1.1375,3.15 0,1.925 -1.4875,3.15 -1.4,1.225 -3.675,1.225 h -1.575 q -4.2875,0 -7.875,-2.1875 -3.5,-2.275 -5.5125,-6.125 -2.0125,-3.85 -2.0125,-8.6625 V 85.203271 h -4.025 q -1.8375,0 -2.975,-1.05 -1.1375,-1.05 -1.1375,-2.625 0,-1.75 1.1375,-2.8 1.1375,-1.05 2.975,-1.05 h 4.025 v -12.6 q 0,-1.925 1.225,-3.15 1.225,-1.225 3.15,-1.225 1.925,0 3.15,1.225 1.225,1.225 1.225,3.15 v 12.6 h 7.4375 q 1.8375,0 2.975,1.05 1.1375,1.05 1.1375,2.8 0,1.575 -1.1375,2.625 -1.1375,1.05 -2.975,1.05 h -7.4375 v 21.612499 q 0,3.5 1.925,5.8625 1.925,2.3625 4.725,2.3625 z"
         style="font-style:normal;font-variant:normal;font-weight:bold;font-stretch:normal;font-size:87.5px;line-height:100%;font-family:Comfortaa;-inkscape-font-specification:'Comfortaa, Bold';text-align:start;writing-mode:lr-tb;text-anchor:start;fill:#666666"
         id="path3732" />
      <path
         d="m 338.51697,75.578271 q 6.7375,0 12.1625,3.2375 5.5125,3.15 8.6625,8.75 3.2375,5.5125 3.2375,12.3375 v 19.512499 q 0,1.925 -1.3125,3.2375 -1.225,1.225 -3.15,1.225 -1.925,0 -3.2375,-1.225 -1.225,-1.3125 -1.225,-3.2375 v -3.2375 q -3.0625,3.7625 -7.4375,5.8625 -4.375,2.1 -9.45,2.1 -6.3,0 -11.4625,-3.15 -5.075,-3.15 -8.05,-8.6625 -2.8875,-5.6 -2.8875,-12.424999 0,-6.825 3.15,-12.3375 3.15,-5.6 8.6625,-8.75 5.6,-3.2375 12.3375,-3.2375 z m 0,40.687499 q 4.375,0 7.875,-2.1 3.5875,-2.1875 5.6,-5.8625 2.0125,-3.7625 2.0125,-8.399999 0,-4.6375 -2.0125,-8.4 -2.0125,-3.7625 -5.6,-5.8625 -3.5,-2.1875 -7.875,-2.1875 -4.375,0 -7.9625,2.1875 -3.5,2.1 -5.6,5.8625 -2.0125,3.7625 -2.0125,8.4 0,4.637499 2.0125,8.399999 2.1,3.675 5.6,5.8625 3.5875,2.1 7.9625,2.1 z"
         style="font-style:normal;font-variant:normal;font-weight:bold;font-stretch:normal;font-size:87.5px;line-height:100%;font-family:Comfortaa;-inkscape-font-specification:'Comfortaa, Bold';text-align:start;writing-mode:lr-tb;text-anchor:start;fill:#666666"
         id="path3734" />
      <path
         d="m 380.41033,55.453271 q -2.0125,0 -3.2375,1.225 -1.225,1.225 -1.225,3.2375 v 39.9 q 0,6.824999 3.15,12.424999 3.2375,5.5125 8.6625,8.75 5.5125,3.15 12.25,3.15 6.7375,0 12.25,-3.15 5.6,-3.2375 8.75,-8.75 3.15,-5.6 3.15,-12.424999 0,-6.825 -2.975,-12.3375 -2.8875,-5.6 -8.05,-8.75 -5.075,-3.15 -11.375,-3.15 -5.075,0 -9.45,2.1 -4.375,2.1 -7.4375,5.8625 v -23.625 q 0,-2.0125 -1.3125,-3.2375 -1.225,-1.225 -3.15,-1.225 z m 19.6,60.812499 q -4.375,0 -7.9625,-2.1 -3.5,-2.1875 -5.5125,-5.95 -2.0125,-3.7625 -2.0125,-8.399999 0,-4.6375 2.0125,-8.3125 2.0125,-3.7625 5.5125,-5.8625 3.5875,-2.1875 7.9625,-2.1875 4.375,0 7.875,2.1875 3.5875,2.1 5.6,5.8625 2.1,3.675 2.1,8.3125 0,4.637499 -2.1,8.399999 -2.0125,3.7625 -5.6,5.95 -3.5,2.1 -7.875,2.1 z"
         style="font-style:normal;font-variant:normal;font-weight:bold;font-stretch:normal;font-size:87.5px;line-height:100%;font-family:Comfortaa;-inkscape-font-specification:'Comfortaa, Bold';text-align:start;writing-mode:lr-tb;text-anchor:start;fill:#666666"
         id="path3736" />
      <path
         d="m 459.17127,75.578271 q 6.9125,0 12.3375,3.15 5.5125,3.0625 8.575,8.575 3.15,5.5125 3.15,12.6 0,6.999999 -3.0625,12.512499 -3.0625,5.5125 -8.575,8.6625 -5.425,3.0625 -12.425,3.0625 -7,0 -12.5125,-3.0625 -5.5125,-3.15 -8.575,-8.6625 -3.0625,-5.5125 -3.0625,-12.512499 0,-7.0875 3.0625,-12.6 3.0625,-5.5125 8.575,-8.575 5.5125,-3.15 12.5125,-3.15 z m 0,7.875 q -4.4625,0 -8.05,2.1 -3.5,2.1 -5.5125,5.8625 -2.0125,3.7625 -2.0125,8.4875 0,4.724999 2.0125,8.487499 2.0125,3.675 5.5125,5.775 3.5875,2.1 8.05,2.1 4.4625,0 7.9625,-2.1 3.5875,-2.1 5.5125,-5.775 2.0125,-3.7625 2.0125,-8.487499 0,-4.725 -2.0125,-8.4875 -1.925,-3.7625 -5.5125,-5.8625 -3.5,-2.1 -7.9625,-2.1 z"
         style="font-style:normal;font-variant:normal;font-weight:bold;font-stretch:normal;font-size:87.5px;line-height:100%;font-family:Comfortaa;-inkscape-font-specification:'Comfortaa, Bold';text-align:start;writing-mode:lr-tb;text-anchor:start;fill:#666666"
         id="path3738" />
      <path
         d="m 536.06463,75.840771 q 2.0125,0 3.2375,1.225 1.225,1.225 1.225,3.2375 v 39.024999 q 0,1.925 -1.225,3.2375 -1.225,1.225 -3.2375,1.225 -1.925,0 -3.2375,-1.225 -1.225,-1.3125 -1.225,-3.2375 v -0.9625 q -2.8,2.8 -6.65,4.375 -3.85,1.4875 -8.225,1.4875 -6.0375,0 -10.85,-2.625 -4.8125,-2.625 -7.525,-7.6125 -2.7125,-5.075 -2.7125,-12.1625 V 80.303271 q 0,-1.925 1.225,-3.15 1.3125,-1.3125 3.2375,-1.3125 1.925,0 3.15,1.3125 1.3125,1.225 1.3125,3.15 v 21.524999 q 0,7.0875 3.7625,10.7625 3.85,3.5875 10.15,3.5875 3.675,0 6.65,-1.4875 3.0625,-1.4875 4.725,-4.025 1.75,-2.5375 1.75,-5.6875 V 80.303271 q 0,-2.0125 1.225,-3.2375 1.3125,-1.225 3.2375,-1.225 z"
         style="font-style:normal;font-variant:normal;font-weight:bold;font-stretch:normal;font-size:87.5px;line-height:100%;font-family:Comfortaa;-inkscape-font-specification:'Comfortaa, Bold';text-align:start;writing-mode:lr-tb;text-anchor:start;fill:#666666"
         id="path3740" />
      <path
         d="m 576.63318,115.04077 q 1.575,0 2.625,1.225 1.1375,1.225 1.1375,3.15 0,1.925 -1.4875,3.15 -1.4,1.225 -3.675,1.225 h -1.575 q -4.2875,0 -7.875,-2.1875 -3.5,-2.275 -5.5125,-6.125 -2.0125,-3.85 -2.0125,-8.6625 V 85.203271 h -4.025 q -1.8375,0 -2.975,-1.05 -1.1375,-1.05 -1.1375,-2.625 0,-1.75 1.1375,-2.8 1.1375,-1.05 2.975,-1.05 h 4.025 v -12.6 q 0,-1.925 1.225,-3.15 1.225,-1.225 3.15,-1.225 1.925,0 3.15,1.225 1.225,1.225 1.225,3.15 v 12.6 h 7.4375 q 1.8375,0 2.975,1.05 1.1375,1.05 1.1375,2.8 0,1.575 -1.1375,2.625 -1.1375,1.05 -2.975,1.05 h -7.4375 v 21.612499 q 0,3.5 1.925,5.8625 1.925,2.3625 4.725,2.3625 z"
         style="font-style:normal;font-variant:normal;font-weight:bold;font-stretch:normal;font-size:87.5px;line-height:100%;font-family:Comfortaa;-inkscape-font-specification:'Comfortaa, Bold';text-align:start;writing-mode:lr-tb;text-anchor:start;fill:#666666"
         id="path3742" />
    </g>
    <circle
       style="fill:#8f5cdc;fill-opacity:1"
       id="path3340"
       cx="218.54724"
       cy="171.86218"
       r="25" />
    <circle
       cy="171.86218"
       cx="279.94724"
       id="ellipse3342"
       style="fill:#42b200;fill-opacity:1"
       r="25" />
    <circle
       style="fill:#fd3b3b;fill-opacity:1"
       id="ellipse3344"
       cx="341.34726"
       cy="171.86218"
       r="25" />
    <circle
       cy="171.86218"
       cx="402.74725"
       id="ellipse3346"
       style="fill:#5397fd;fill-opacity:1"
       r="25" />
    <circle
       style="fill:#f78206;fill-opacity:1"
       id="ellipse3348"
       cx="464.14725"
       cy="171.86218"
       r="25" />
    <circle
       cy="171.86218"
       cx="525.54724"
       id="ellipse3350"
       style="fill:#ece70d;fill-opacity:1"
       r="25" />
  </g>
</svg>
